# Blender 4.0.2
# www.blender.org
mtllib map.mtl
o surface
v 6.622508 0.053203 7.957354
v 6.622508 -0.053201 7.957354
v -6.626298 0.053203 7.954198
v -6.626298 -0.053201 7.954198
v 6.626298 0.053201 -7.954198
v 6.626298 -0.053203 -7.954198
v -6.622508 0.053201 -7.957354
v -6.622508 -0.053203 -7.957354
v 6.624403 0.053202 0.001578
v -6.624403 -0.053202 -0.001578
v 6.624403 -0.053202 0.001578
v -6.624403 0.046267 -0.001578
v -0.001895 0.053203 7.955776
v 0.001895 0.053201 -7.955776
v 0.001895 -0.053203 -7.955776
v -0.001895 -0.053201 7.955776
v 0.000000 -0.053202 0.000000
v 0.000000 0.046267 -0.000000
v 6.625350 0.053202 -3.976310
v -6.623456 -0.053202 -3.979466
v 6.625350 -0.053202 -3.976310
v -6.623456 0.053202 -3.979466
v 0.000948 -0.053202 -3.977888
v 0.000948 0.053202 -3.977888
v 3.310306 0.053203 7.956565
v 3.314097 0.053201 -7.954987
v 3.314097 -0.053203 -7.954987
v 3.310306 -0.053201 7.956565
v 3.312201 -0.053202 0.000789
v 3.312201 0.046267 0.000789
v 3.313149 0.053202 -3.977099
v 3.313149 -0.053202 -3.977099
v 0.000474 0.053202 -1.988944
v 6.624877 0.053202 -1.987366
v -6.623929 -0.053202 -1.990522
v 6.624877 -0.053202 -1.987366
v -6.623929 0.053202 -1.990522
v 0.000474 -0.053202 -1.988944
v 3.312675 0.053202 -1.988155
v 3.312675 -0.053202 -1.988155
v 6.625828 0.053202 -5.979040
v -6.622978 -0.053202 -5.982195
v 6.625828 -0.053202 -5.979040
v -6.622978 0.053202 -5.982195
v 0.001425 -0.053202 -5.980618
v 0.001425 0.053202 -5.980618
v 3.313626 -0.053202 -5.979828
v 3.313626 0.053202 -5.979828
v -3.314097 0.053203 7.954987
v -3.310306 0.053201 -7.956565
v -3.310306 -0.053203 -7.956565
v -3.314097 -0.053201 7.954987
v -3.312201 -0.053202 -0.000789
v -3.312201 0.046267 -0.000789
v -3.311254 -0.053202 -3.978677
v -3.311254 0.053202 -3.978677
v -3.311728 0.053202 -1.989733
v -3.311728 -0.053202 -1.989733
v -3.310777 -0.053202 -5.981407
v -3.299455 0.053438 -5.991313
v 6.623456 0.053202 3.979466
v -6.625350 -0.053202 3.976310
v 6.623456 -0.053202 3.979466
v -6.625350 0.053202 3.976310
v -0.000948 0.053202 3.977888
v -0.000948 -0.053202 3.977888
v 3.311254 -0.053202 3.978677
v 3.311254 0.053202 3.978677
v -3.313149 0.053202 3.977099
v -3.313149 -0.053202 3.977099
v -0.001421 0.053202 5.966832
v 3.310780 0.053202 5.967621
v -3.313623 0.053202 5.966043
v 6.622982 0.053202 5.968410
v -6.625824 -0.053202 5.965254
v 6.622982 -0.053202 5.968410
v -6.625824 0.053202 5.965254
v -0.001421 -0.053202 5.966832
v 3.310780 -0.053202 5.967621
v -3.313623 -0.053202 5.966043
v 6.623929 0.053202 1.990522
v -6.624877 -0.053202 1.987366
v 6.623929 -0.053202 1.990522
v -6.624877 0.053202 1.987366
v -0.000474 -0.053202 1.988944
v 3.311728 -0.053202 1.989733
v -3.312675 -0.053202 1.988155
v -0.000474 0.053202 1.988944
v 3.311728 0.053202 1.989733
v -3.312675 0.053202 1.988155
v 0.000237 0.046267 -0.994472
v 3.312438 0.046267 -0.993683
v 6.624640 0.053202 -0.992894
v -6.624166 -0.053202 -0.996050
v 6.624640 -0.053202 -0.992894
v -6.624166 0.046267 -0.996050
v 0.000237 -0.053202 -0.994472
v 3.312438 -0.053202 -0.993683
v -3.311965 0.046267 -0.995261
v -3.311965 -0.053202 -0.995261
v 6.624166 0.053202 0.996050
v -6.624640 -0.053202 0.992894
v 6.624166 -0.053202 0.996050
v -6.624640 0.046268 0.992894
v -0.000237 -0.053202 0.994472
v 3.311965 -0.053202 0.995261
v -3.312438 -0.053202 0.993683
v -0.000237 0.046268 0.994472
v 3.311965 0.046268 0.995261
v -3.312438 0.046268 0.993683
v 4.966407 0.053203 7.956960
v 4.970198 0.053201 -7.954593
v 4.970198 -0.053203 -7.954593
v 4.966407 -0.053201 7.956960
v 4.968302 -0.053202 0.001184
v 4.963286 0.042165 0.001127
v 4.969250 0.053202 -3.976705
v 4.969250 -0.053202 -3.976705
v 4.968776 -0.053202 -1.987761
v 4.968776 0.053202 -1.987761
v 4.969727 0.053202 -5.979434
v 4.969727 -0.053202 -5.979434
v 4.967355 0.053202 3.979072
v 4.967355 -0.053202 3.979072
v 4.966881 0.053202 5.968016
v 4.966881 -0.053202 5.968016
v 4.967828 -0.053202 1.990128
v 4.967828 0.053202 1.990128
v 4.963522 0.042165 -0.993345
v 4.968539 -0.053202 -0.993288
v 4.968065 -0.053202 0.995656
v 4.963049 0.042165 0.995599
vn -0.0000 1.0000 -0.0001
vn -1.0000 -0.0000 -0.0002
vn 0.0002 -0.0000 -1.0000
vn -0.0000 -1.0000 -0.0000
vn -0.0002 -0.0000 1.0000
vn 1.0000 -0.0000 0.0002
vn -0.0000 1.0000 -0.0000
vn 0.0025 1.0000 -0.0000
vn 0.0012 1.0000 0.0090
vn -0.0000 1.0000 0.0070
vn -0.0000 1.0000 0.0001
vn -0.0000 1.0000 -0.0070
vn 0.0012 1.0000 -0.0090
vn -0.0033 1.0000 -0.0055
vn -0.0066 1.0000 -0.0000
vn -0.0033 1.0000 0.0055
vt 0.843967 0.687500
vt 0.875000 0.687500
vt 0.875000 0.750000
vt 0.843967 0.750000
vt 0.375000 0.968967
vt 0.625000 0.968967
vt 0.625000 1.000000
vt 0.375000 1.000000
vt 0.375000 0.218750
vt 0.625000 0.218750
vt 0.625000 0.250000
vt 0.375000 0.250000
vt 0.343750 0.687500
vt 0.375000 0.687500
vt 0.375000 0.750000
vt 0.343750 0.750000
vt 0.625000 0.687500
vt 0.625000 0.750000
vt 0.375000 0.468750
vt 0.625000 0.468750
vt 0.625000 0.500000
vt 0.375000 0.500000
vt 0.375000 0.359375
vt 0.625000 0.359375
vt 0.625000 0.375000
vt 0.375000 0.375000
vt 0.234375 0.687500
vt 0.250000 0.687500
vt 0.250000 0.750000
vt 0.234375 0.750000
vt 0.375000 0.859375
vt 0.625000 0.859375
vt 0.625000 0.875000
vt 0.375000 0.875000
vt 0.734375 0.687500
vt 0.750000 0.687500
vt 0.750000 0.750000
vt 0.734375 0.750000
vt 0.734375 0.562500
vt 0.750000 0.562500
vt 0.750000 0.625000
vt 0.734375 0.625000
vt 0.234375 0.562500
vt 0.250000 0.562500
vt 0.250000 0.625000
vt 0.234375 0.625000
vt 0.375000 0.562500
vt 0.625000 0.562500
vt 0.625000 0.625000
vt 0.375000 0.625000
vt 0.343750 0.562500
vt 0.343750 0.625000
vt 0.375000 0.062500
vt 0.625000 0.062500
vt 0.625000 0.125000
vt 0.375000 0.125000
vt 0.843967 0.562500
vt 0.875000 0.562500
vt 0.875000 0.625000
vt 0.843967 0.625000
vt 0.781250 0.562500
vt 0.812500 0.562500
vt 0.812500 0.625000
vt 0.781250 0.625000
vt 0.156033 0.562500
vt 0.187500 0.562500
vt 0.187500 0.625000
vt 0.156033 0.625000
vt 0.156033 0.687500
vt 0.187500 0.687500
vt 0.187500 0.750000
vt 0.156033 0.750000
vt 0.375000 0.281033
vt 0.625000 0.281033
vt 0.625000 0.312500
vt 0.375000 0.312500
vt 0.375000 0.906250
vt 0.625000 0.906250
vt 0.625000 0.937500
vt 0.375000 0.937500
vt 0.781250 0.687500
vt 0.812500 0.687500
vt 0.812500 0.750000
vt 0.781250 0.750000
vt 0.156033 0.531250
vt 0.187500 0.531250
vt 0.781250 0.531250
vt 0.812500 0.531250
vt 0.843967 0.531250
vt 0.875000 0.531250
vt 0.343750 0.531250
vt 0.375000 0.531250
vt 0.625000 0.531250
vt 0.234375 0.531250
vt 0.250000 0.531250
vt 0.734375 0.531250
vt 0.750000 0.531250
vt 0.625000 0.187500
vt 0.375000 0.187500
vt 0.218750 0.531250
vt 0.218750 0.562500
vt 0.765625 0.531250
vt 0.765625 0.562500
vt 0.765625 0.687500
vt 0.765625 0.750000
vt 0.375000 0.890625
vt 0.625000 0.890625
vt 0.765625 0.625000
vt 0.218750 0.625000
vt 0.218750 0.687500
vt 0.218750 0.750000
vt 0.625000 0.343750
vt 0.375000 0.343750
vt 0.125000 0.531250
vt 0.125000 0.562500
vt 0.125000 0.687500
vt 0.125000 0.750000
vt 0.125000 0.625000
vt 0.375000 0.000000
vt 0.625000 0.000000
vt 0.281250 0.625000
vt 0.312500 0.625000
vt 0.312500 0.687500
vt 0.281250 0.687500
vt 0.656250 0.625000
vt 0.687500 0.625000
vt 0.687500 0.687500
vt 0.656250 0.687500
vt 0.656250 0.531250
vt 0.687500 0.531250
vt 0.687500 0.562500
vt 0.656250 0.562500
vt 0.281250 0.531250
vt 0.312500 0.531250
vt 0.312500 0.562500
vt 0.281250 0.562500
vt 0.687500 0.750000
vt 0.656250 0.750000
vt 0.375000 0.781250
vt 0.625000 0.781250
vt 0.625000 0.812500
vt 0.375000 0.812500
vt 0.375000 0.406250
vt 0.625000 0.406250
vt 0.625000 0.437500
vt 0.375000 0.437500
vt 0.312500 0.750000
vt 0.281250 0.750000
vt 0.265625 0.687500
vt 0.265625 0.750000
vt 0.375000 0.390625
vt 0.625000 0.390625
vt 0.265625 0.562500
vt 0.265625 0.625000
vt 0.265625 0.531250
vt 0.718750 0.625000
vt 0.718750 0.687500
vt 0.718750 0.531250
vt 0.718750 0.562500
vt 0.718750 0.750000
vt 0.625000 0.843750
vt 0.375000 0.843750
vt 0.718750 0.500000
vt 0.734375 0.500000
vt 0.250000 0.500000
vt 0.265625 0.500000
vt 0.218750 0.500000
vt 0.234375 0.500000
vt 0.750000 0.500000
vt 0.765625 0.500000
vt 0.687500 0.500000
vt 0.281250 0.500000
vt 0.312500 0.500000
vt 0.343750 0.500000
vt 0.656250 0.500000
vt 0.125000 0.500000
vt 0.156033 0.500000
vt 0.812500 0.500000
vt 0.843967 0.500000
vt 0.781250 0.500000
vt 0.187500 0.500000
vt 0.875000 0.500000
s 0
usemtl Material.001
f 60/1/1 50/2/1 7/3/1 44/4/1
f 42/5/2 44/6/2 7/7/2 8/8/2
f 113/9/3 112/10/3 5/11/3 6/12/3
f 80/13/4 52/14/4 4/15/4 75/16/4
f 52/14/5 49/17/5 3/18/5 4/15/5
f 76/19/6 74/20/6 1/21/6 2/22/6
f 95/23/6 93/24/6 9/25/6 11/26/6
f 100/27/4 53/28/4 10/29/4 94/30/4
f 102/31/2 104/32/2 12/33/2 10/34/2
f 110/35/7 54/36/7 12/37/7 104/38/7
f 109/39/7 30/40/7 18/41/7 108/42/7
f 98/43/4 29/44/4 17/45/4 97/46/4
f 28/47/5 25/48/5 13/49/5 16/50/5
f 79/51/4 28/47/4 16/50/4 78/52/4
f 51/53/3 50/54/3 14/55/3 15/56/3
f 48/57/7 26/58/7 14/59/7 46/60/7
f 39/61/7 31/62/7 24/63/7 33/64/7
f 47/65/4 32/66/4 23/67/4 45/68/4
f 59/69/4 55/70/4 20/71/4 42/72/4
f 43/73/6 41/74/6 19/75/6 21/76/6
f 35/77/2 37/78/2 22/79/2 20/80/2
f 57/81/7 56/82/7 22/83/7 37/84/7
f 122/85/4 118/86/4 32/66/4 47/65/4
f 120/87/7 117/88/7 31/62/7 39/61/7
f 121/89/7 112/90/7 26/58/7 48/57/7
f 126/91/4 114/92/4 28/47/4 79/51/4
f 114/92/5 111/93/5 25/48/5 28/47/5
f 130/94/4 115/95/4 29/44/4 98/43/4
f 132/96/8 116/97/8 30/40/8 109/39/8
f 15/56/3 14/55/3 26/98/3 27/99/3
f 118/86/4 119/100/4 40/101/4 32/66/4
f 129/102/9 120/87/9 39/61/9 92/103/9
f 99/104/10 57/81/10 37/84/10 96/105/10
f 94/106/2 96/107/2 37/78/2 35/77/2
f 92/103/10 39/61/10 33/64/10 91/108/10
f 32/66/4 40/101/4 38/109/4 23/67/4
f 55/70/4 58/110/4 35/111/4 20/71/4
f 21/76/6 19/75/6 34/112/6 36/113/6
f 117/88/7 121/89/7 48/57/7 31/62/7
f 113/114/4 122/85/4 47/65/4 27/115/4
f 6/12/6 5/11/6 41/74/6 43/73/6
f 51/116/4 59/69/4 42/72/4 8/117/4
f 27/115/4 47/65/4 45/68/4 15/118/4
f 31/62/7 48/57/7 46/60/7 24/63/7
f 20/80/2 22/79/2 44/6/2 42/5/2
f 56/82/11 60/1/11 44/4/11 22/83/11
f 24/63/11 46/60/11 60/1/11 56/82/11
f 15/118/4 45/68/4 59/69/4 51/116/4
f 23/67/4 38/109/4 58/110/4 55/70/4
f 91/108/10 33/64/10 57/81/10 99/104/10
f 33/64/7 24/63/7 56/82/7 57/81/7
f 45/68/4 23/67/4 55/70/4 59/69/4
f 8/119/3 7/120/3 50/54/3 51/53/3
f 108/42/7 18/41/7 54/36/7 110/35/7
f 97/46/4 17/45/4 53/28/4 100/27/4
f 16/50/5 13/49/5 49/17/5 52/14/5
f 78/52/4 16/50/4 52/14/4 80/13/4
f 46/60/1 14/59/1 50/2/1 60/1/1
f 85/121/4 66/122/4 70/123/4 87/124/4
f 71/125/7 65/126/7 69/127/7 73/128/7
f 125/129/7 123/130/7 68/131/7 72/132/7
f 127/133/4 124/134/4 67/135/4 86/136/4
f 86/136/4 67/135/4 66/122/4 85/121/4
f 72/132/7 68/131/7 65/126/7 71/125/7
f 73/128/7 69/127/7 64/137/7 77/138/7
f 75/139/2 77/140/2 64/141/2 62/142/2
f 83/143/6 81/144/6 61/145/6 63/146/6
f 87/124/4 70/123/4 62/147/4 82/148/4
f 4/15/2 3/18/2 77/140/2 75/139/2
f 49/17/7 73/128/7 77/138/7 3/18/7
f 25/48/7 72/132/7 71/125/7 13/49/7
f 111/93/7 125/129/7 72/132/7 25/48/7
f 13/49/7 71/125/7 73/128/7 49/17/7
f 66/122/4 78/52/4 80/13/4 70/123/4
f 124/134/4 126/91/4 79/51/4 67/135/4
f 67/135/4 79/51/4 78/52/4 66/122/4
f 63/146/6 61/145/6 74/20/6 76/19/6
f 70/123/4 80/13/4 75/16/4 62/147/4
f 107/149/4 87/124/4 82/148/4 102/150/4
f 103/151/6 101/152/6 81/144/6 83/143/6
f 106/153/4 86/136/4 85/121/4 105/154/4
f 131/155/4 127/133/4 86/136/4 106/153/4
f 105/154/4 85/121/4 87/124/4 107/149/4
f 65/126/7 88/156/7 90/157/7 69/127/7
f 123/130/7 128/158/7 89/159/7 68/131/7
f 68/131/7 89/159/7 88/156/7 65/126/7
f 69/127/7 90/157/7 84/160/7 64/137/7
f 62/142/2 64/141/2 84/161/2 82/162/2
f 38/109/4 97/46/4 100/27/4 58/110/4
f 18/41/7 91/108/7 99/104/7 54/36/7
f 30/40/7 92/103/7 91/108/7 18/41/7
f 10/34/2 12/33/2 96/107/2 94/106/2
f 54/36/7 99/104/7 96/105/7 12/37/7
f 116/97/8 129/102/8 92/103/8 30/40/8
f 119/100/4 130/94/4 98/43/4 40/101/4
f 40/101/4 98/43/4 97/46/4 38/109/4
f 58/110/4 100/27/4 94/30/4 35/111/4
f 36/113/6 34/112/6 93/24/6 95/23/6
f 17/45/4 105/154/4 107/149/4 53/28/4
f 115/95/4 131/155/4 106/153/4 29/44/4
f 29/44/4 106/153/4 105/154/4 17/45/4
f 11/26/6 9/25/6 101/152/6 103/151/6
f 53/28/4 107/149/4 102/150/4 10/29/4
f 88/156/12 108/42/12 110/35/12 90/157/12
f 128/158/13 132/96/13 109/39/13 89/159/13
f 89/159/12 109/39/12 108/42/12 88/156/12
f 90/157/12 110/35/12 104/38/12 84/160/12
f 82/162/2 84/161/2 104/32/2 102/31/2
f 81/163/14 101/164/14 132/96/14 128/158/14
f 11/165/4 103/166/4 131/155/4 115/95/4
f 36/167/4 95/168/4 130/94/4 119/100/4
f 9/169/15 93/170/15 129/102/15 116/97/15
f 61/171/7 81/163/7 128/158/7 123/130/7
f 103/166/4 83/172/4 127/133/4 131/155/4
f 63/173/4 76/174/4 126/91/4 124/134/4
f 1/21/7 74/175/7 125/129/7 111/93/7
f 83/172/4 63/173/4 124/134/4 127/133/4
f 74/175/7 61/171/7 123/130/7 125/129/7
f 6/176/4 43/177/4 122/85/4 113/114/4
f 19/178/7 41/179/7 121/89/7 117/88/7
f 93/170/16 34/180/16 120/87/16 129/102/16
f 21/181/4 36/167/4 119/100/4 118/86/4
f 101/164/15 9/169/15 116/97/15 132/96/15
f 95/168/4 11/165/4 115/95/4 130/94/4
f 2/22/5 1/21/5 111/93/5 114/92/5
f 76/174/4 2/22/4 114/92/4 126/91/4
f 41/179/7 5/182/7 112/90/7 121/89/7
f 34/180/7 19/178/7 117/88/7 120/87/7
f 43/177/4 21/181/4 118/86/4 122/85/4
f 27/99/3 26/98/3 112/10/3 113/9/3
